<?xml version="1.0" encoding="UTF-8" standalone="no"?>
<svg
   width="116"
   height="45"
   viewBox="0 0 116 45"
   fill="none"
   version="1.1"
   id="svg6"
   sodipodi:docname="comunit_logo.svg"
   inkscape:version="1.4-dev (1:1.4.0-dev+202402011117+f055ee0d9f)"
   xmlns:inkscape="http://www.inkscape.org/namespaces/inkscape"
   xmlns:sodipodi="http://sodipodi.sourceforge.net/DTD/sodipodi-0.dtd"
   xmlns="http://www.w3.org/2000/svg"
   xmlns:svg="http://www.w3.org/2000/svg">
  <defs
     id="defs6" />
  <sodipodi:namedview
     id="namedview6"
     pagecolor="#ffffff"
     bordercolor="#000000"
     borderopacity="0.25"
     inkscape:showpageshadow="2"
     inkscape:pageopacity="0.0"
     inkscape:pagecheckerboard="0"
     inkscape:deskcolor="#d1d1d1"
     inkscape:zoom="7.4395045"
     inkscape:cx="22.716567"
     inkscape:cy="48.323111"
     inkscape:window-width="1916"
     inkscape:window-height="1034"
     inkscape:window-x="0"
     inkscape:window-y="44"
     inkscape:window-maximized="1"
     inkscape:current-layer="svg6" />
  <path
     id="path8"
     style="fill:#ffffff;stroke-width:0.105966"
     class="cls-2"
     d="m 22.513982,0.53577222 c -12.15323,0 -22.0411084,9.88787878 -22.0411084,22.04111178 0,12.153233 9.8878784,22.041111 22.0411084,22.041111 12.153233,0 22.041112,-9.887878 22.041112,-22.041111 0,-12.153233 -9.887879,-22.04111178 -22.041112,-22.04111178 z m 0,1.69503368 c 11.218614,0 20.34466,9.1274631 20.34466,20.3460781 0,3.400447 -0.838638,6.60781 -2.320042,9.427564 l -7.724027,-4.458677 c 0.74812,-1.533327 1.143723,-3.223628 1.143723,-4.968887 0,-3.038044 -1.19615,-5.907098 -3.367392,-8.078339 -2.171242,-2.171243 -5.038878,-3.365975 -8.076922,-3.365975 v 1.695033 c 2.585569,0 5.028118,1.019772 6.879344,2.869937 1.851225,1.850166 2.869936,4.293775 2.869936,6.879344 0,1.443256 -0.318268,2.841289 -0.921214,4.117118 l -7.670171,-4.427496 1.695035,-2.936548 -1.468274,-0.847517 -4.239003,7.341368 1.469691,0.847517 1.695034,-2.936547 7.66025,4.423245 c -0.323196,0.457773 -0.686495,0.892353 -1.091284,1.298204 -1.851226,1.851225 -4.293775,2.869936 -6.879344,2.869936 -1.709231,0 -3.393588,-0.451562 -4.873932,-1.306707 L 16.904496,30.595698 11.618144,39.75115 C 5.941551,36.137711 2.1679022,29.789985 2.1679022,22.576884 c 0,-11.218615 9.1274648,-20.3460781 20.3460798,-20.3460781 z m -2.118793,9.7492801 -12.7170086,6.357795 4.2999426,0.860273 -2.7806479,2.779232 1.2004149,1.198996 2.779233,-2.779233 0.858854,4.298527 z m 11.566198,17.029707 7.728279,4.462928 c -3.613439,5.676596 -9.961165,9.448823 -17.174267,9.448823 h -0.0015 c -3.400447,0 -6.60781,-0.838638 -9.427565,-2.320042 l 4.455843,-7.716941 c 1.547103,0.746001 3.249775,1.136637 4.971722,1.136637 3.038044,0 5.90568,-1.19615 8.076922,-3.367392 0.511816,-0.511815 0.969933,-1.062259 1.370483,-1.644013 z" />
</svg>
