<?xml version="1.0" encoding="UTF-8" standalone="no"?>
<svg
   width="44.082222"
   height="44.082222"
   viewBox="0 0 44.082222 44.082222"
   fill="none"
   version="1.1"
   id="svg6"
   sodipodi:docname="comunit_logo.svg"
   inkscape:version="1.4-dev (1:1.4.0-dev+202402071009+d0eedfc3b3)"
   xmlns:inkscape="http://www.inkscape.org/namespaces/inkscape"
   xmlns:sodipodi="http://sodipodi.sourceforge.net/DTD/sodipodi-0.dtd"
   xmlns="http://www.w3.org/2000/svg"
   xmlns:svg="http://www.w3.org/2000/svg">
  <defs
     id="defs6" />
  <sodipodi:namedview
     id="namedview6"
     pagecolor="#ffffff"
     bordercolor="#000000"
     borderopacity="0.25"
     inkscape:showpageshadow="2"
     inkscape:pageopacity="0.0"
     inkscape:pagecheckerboard="0"
     inkscape:deskcolor="#d1d1d1"
     inkscape:zoom="3.1549581"
     inkscape:cx="6.6561898"
     inkscape:cy="98.09956"
     inkscape:window-width="1916"
     inkscape:window-height="1034"
     inkscape:window-x="0"
     inkscape:window-y="44"
     inkscape:window-maximized="1"
     inkscape:current-layer="svg6" />
  <path
     id="path8"
     style="fill:#ffffff;stroke-width:0.105966"
     class="cls-2"
     d="M 22.041108,0 C 9.8878784,0 0,9.8878788 0,22.041112 c 0,12.153233 9.8878784,22.041111 22.041108,22.041111 12.153233,0 22.041112,-9.887878 22.041112,-22.041111 C 44.08222,9.8878788 34.194341,0 22.041108,0 Z m 0,1.6950337 c 11.218614,0 20.34466,9.1274633 20.34466,20.3460783 0,3.400447 -0.838638,6.60781 -2.320042,9.427564 l -7.724027,-4.458677 c 0.74812,-1.533327 1.143723,-3.223628 1.143723,-4.968887 0,-3.038044 -1.19615,-5.907098 -3.367392,-8.078339 -2.171242,-2.171243 -5.038878,-3.365975 -8.076922,-3.365975 v 1.695033 c 2.585569,0 5.028118,1.019772 6.879344,2.869937 1.851225,1.850166 2.869936,4.293775 2.869936,6.879344 0,1.443256 -0.318268,2.841289 -0.921214,4.117118 l -7.670171,-4.427496 1.695035,-2.936548 -1.468274,-0.847517 -4.239003,7.341368 1.469691,0.847517 1.695034,-2.936547 7.66025,4.423245 c -0.323196,0.457773 -0.686495,0.892353 -1.091284,1.298204 -1.851226,1.851225 -4.293775,2.869936 -6.879344,2.869936 -1.709231,0 -3.393588,-0.451562 -4.873932,-1.306707 L 16.431622,30.059926 11.14527,39.215378 C 5.4686774,35.601939 1.6950286,29.254213 1.6950286,22.041112 c 0,-11.218615 9.1274644,-20.3460783 20.3460794,-20.3460783 z m -2.118793,9.7492803 -12.7170082,6.357795 4.2999422,0.860273 -2.7806475,2.779232 1.2004149,1.198996 2.7792326,-2.779233 0.858854,4.298527 z m 11.566198,17.029707 7.728279,4.462928 c -3.613439,5.676596 -9.961165,9.448823 -17.174267,9.448823 h -0.0015 c -3.400447,0 -6.60781,-0.838638 -9.427565,-2.320042 l 4.455843,-7.716941 c 1.547103,0.746001 3.249775,1.136637 4.971722,1.136637 3.038044,0 5.90568,-1.19615 8.076922,-3.367392 0.511816,-0.511815 0.969933,-1.062259 1.370483,-1.644013 z" />
</svg>
