<svg width="179" height="52" viewBox="0 0 179 52" fill="none" xmlns="http://www.w3.org/2000/svg">
<path fill-rule="evenodd" clip-rule="evenodd" d="M8.79488 0L7.15513 4.30876H3.10983L6.6267 6.51107L4.56091 11.1377L9.01078 8.14966L12.8202 10.9813L11.0164 6.34847L14.4853 4.33444H10.1976L8.79488 0ZM8.75117 1.73293L9.65004 4.512L9.77889 4.91005H10.1973H12.349L10.7276 5.85149L10.3016 6.09883L10.4803 6.55747L11.5586 9.32733L9.35361 7.68834L9.02727 7.44599L8.68981 7.67262L5.90193 9.54476L7.1513 6.74614L7.35531 6.28942L6.93118 6.02405L5.11158 4.88435H7.15475H7.55127L7.69239 4.51391L8.75117 1.73293ZM71.6929 25.8864C73.7012 25.8864 75.3727 25.3043 76.7088 24.1489C78.0444 22.9935 78.7082 21.4526 78.7082 19.5268C78.7082 16.7731 76.3234 15.3964 71.5621 15.3964H66.9727L65.0054 25.8864H71.6929ZM134.185 13.9008C135.035 16.5211 135.425 19.4306 135.339 22.6368H121.362C121.573 19.7266 120.933 17.7613 119.458 16.7397C117.985 15.7177 116.37 15.2108 114.623 15.2108C111.714 15.2108 109.373 16.459 107.603 18.9551C105.832 21.4511 104.639 24.5477 104.015 28.2525C103.851 29.251 103.68 30.788 103.516 32.8703C103.64 38.0729 106.012 40.6702 110.629 40.6702C114.872 40.6702 117.868 38.1117 119.615 32.9949H133.638L138.678 4.38136H161.298C165.232 4.38136 168.518 4.87336 171.164 5.85698C173.812 6.83984 175.779 8.27442 177.065 10.1512C178.352 12.0279 179 14.3472 179 17.1013C179 18.3219 178.868 19.6334 178.606 21.035C176.508 31.6152 169.076 36.9014 156.315 36.9014H148.382L145.825 51.653H130.352L133.449 34.0689C132.431 37.1457 130.879 39.9789 128.788 42.5738C126.455 45.4672 123.616 47.6982 120.27 49.2812C116.924 50.865 113.211 51.653 109.132 51.653C102.766 51.6527 97.8058 50.0616 94.2487 46.8791C90.6919 43.6966 88.875 39.2583 88.7891 33.5563C88.8781 32.3373 88.9693 31.2582 89.0602 30.3206C85.2634 34.7079 79.2558 36.9014 71.0375 36.9014H63.1041L60.5471 51.653H45.0742L53.401 4.38176H76.0197C79.9534 4.38176 83.2398 4.87376 85.8869 5.85738C88.5341 6.84023 90.5013 8.27482 91.7875 10.1516C92.9813 11.8918 93.624 14.0136 93.7114 16.5089C94.1344 15.8642 94.5838 15.2445 95.0593 14.6494C97.9534 11.0301 101.292 8.37031 105.075 6.6623C108.858 4.95391 112.54 4.14285 116.12 4.22837C121.486 4.353 125.628 5.3439 128.537 7.19226C131.447 9.04101 133.335 11.2794 134.185 13.9008ZM150.283 25.8864L152.25 15.3964H156.839C161.601 15.3964 163.986 16.7731 163.986 19.5268C163.986 21.4526 163.321 22.9931 161.986 24.1493C160.65 25.3043 158.978 25.8864 156.97 25.8864H150.283ZM36.8567 42.8219L43.4912 48.4978L40.3713 52.0001L33.4986 45.6255C26.295 50.2706 15.8168 49.8173 7.21082 43.9881L6.78707 43.6928L4.31786 47.7427L4.30176 47.7439L5.38201 48.8928C5.3877 48.8981 5.3938 48.9027 5.39993 48.9073C5.40703 48.9126 5.41416 48.918 5.42074 48.9246C5.97602 49.4791 5.97602 50.3776 5.42074 50.9317C4.867 51.4866 3.96813 51.4866 3.41362 50.9317C3.40806 50.9261 3.40338 50.9199 3.39869 50.9137C3.39466 50.9083 3.39062 50.9029 3.38601 50.898L3.37106 50.9118L0.61155 47.9751L0.603882 47.9755L0.606181 47.9694L0.603882 47.9667L0.608867 47.9625L3.24911 40.7753L4.37884 37.701C5.63472 38.8338 7.04707 39.8032 8.54494 40.6212C8.54913 40.6234 8.55332 40.6256 8.5575 40.6279C8.56824 40.6336 8.57893 40.6392 8.58942 40.6453C15.3125 44.4621 23.0745 44.5376 28.5701 41.0541L18.1936 31.4292L13.585 36.6027L9.15543 32.6563L13.8438 27.3946L12.3697 26.0283L14.47 23.6714L15.9971 24.9776L19.3974 21.1604L25.2557 23.5035L20.506 28.835L31.689 38.402C31.9432 38.1151 32.1909 37.821 32.4245 37.5108C35.128 33.9233 35.9348 29.4175 35.0724 24.9534C34.3794 20.354 31.9578 15.5087 27.9539 11.4838C24.2411 7.75137 19.8161 5.37765 15.5284 4.47954C20.6989 4.67857 26.1197 6.54189 30.8656 10.119C41.7019 18.2867 44.9174 32.2955 38.0489 41.4084C37.6739 41.9058 37.2739 42.3748 36.8567 42.8219Z" fill="white"/>
</svg>

